<mxfile host="app.diagrams.net" agent="Mozilla/5.0 (Macintosh; Intel Mac OS X 10_15_7) AppleWebKit/537.36 (KHTML, like Gecko) Chrome/128.0.0.0 Safari/537.36" version="24.7.10">
  <diagram name="Page-1" id="VRwP1EGU7DJ5JijIf0gg">
    <mxGraphModel dx="1026" dy="1823" grid="1" gridSize="10" guides="1" tooltips="1" connect="1" arrows="1" fold="1" page="1" pageScale="1" pageWidth="827" pageHeight="1169" math="0" shadow="0">
      <root>
        <mxCell id="0" />
        <mxCell id="1" parent="0" />
        <mxCell id="fuvidWVMP9lCW8_2vNXT-1" value="" style="edgeStyle=orthogonalEdgeStyle;rounded=0;orthogonalLoop=1;jettySize=auto;html=1;" edge="1" parent="1" source="fuvidWVMP9lCW8_2vNXT-2" target="fuvidWVMP9lCW8_2vNXT-20">
          <mxGeometry relative="1" as="geometry" />
        </mxCell>
        <mxCell id="fuvidWVMP9lCW8_2vNXT-2" value="Branch Master&lt;div&gt;&lt;br&gt;&lt;/div&gt;" style="rounded=1;whiteSpace=wrap;html=1;fontStyle=1" vertex="1" parent="1">
          <mxGeometry x="40" y="200" width="61" height="60" as="geometry" />
        </mxCell>
        <mxCell id="fuvidWVMP9lCW8_2vNXT-3" value="&lt;div&gt;Policy Module&lt;/div&gt;" style="rounded=1;whiteSpace=wrap;html=1;fontStyle=1" vertex="1" parent="1">
          <mxGeometry x="460" y="200" width="190" height="60" as="geometry" />
        </mxCell>
        <mxCell id="fuvidWVMP9lCW8_2vNXT-4" value="&lt;div&gt;Agent Onboarding&lt;/div&gt;" style="rounded=1;whiteSpace=wrap;html=1;verticalAlign=top;fontStyle=1" vertex="1" parent="1">
          <mxGeometry x="50" y="102.5" width="150" height="60" as="geometry" />
        </mxCell>
        <mxCell id="fuvidWVMP9lCW8_2vNXT-5" value="" style="edgeStyle=orthogonalEdgeStyle;rounded=0;orthogonalLoop=1;jettySize=auto;html=1;" edge="1" parent="1" source="fuvidWVMP9lCW8_2vNXT-6" target="fuvidWVMP9lCW8_2vNXT-8">
          <mxGeometry relative="1" as="geometry" />
        </mxCell>
        <mxCell id="fuvidWVMP9lCW8_2vNXT-6" value="Master Template" style="rounded=1;whiteSpace=wrap;html=1;fontStyle=1" vertex="1" parent="1">
          <mxGeometry x="40" y="290" width="61" height="90" as="geometry" />
        </mxCell>
        <mxCell id="fuvidWVMP9lCW8_2vNXT-7" value="" style="edgeStyle=orthogonalEdgeStyle;rounded=0;orthogonalLoop=1;jettySize=auto;html=1;" edge="1" parent="1" source="fuvidWVMP9lCW8_2vNXT-8" target="fuvidWVMP9lCW8_2vNXT-14">
          <mxGeometry relative="1" as="geometry" />
        </mxCell>
        <mxCell id="fuvidWVMP9lCW8_2vNXT-8" value="Transaction Main Form" style="rounded=1;whiteSpace=wrap;html=1;align=center;fontStyle=1" vertex="1" parent="1">
          <mxGeometry x="165" y="290" width="240" height="90" as="geometry" />
        </mxCell>
        <mxCell id="fuvidWVMP9lCW8_2vNXT-9" value="TCS Bancs" style="rounded=1;whiteSpace=wrap;html=1;fontStyle=1" vertex="1" parent="1">
          <mxGeometry x="710" width="120" height="660" as="geometry" />
        </mxCell>
        <mxCell id="fuvidWVMP9lCW8_2vNXT-10" value="&lt;b&gt;Commissions/Incentive Payout Report&lt;/b&gt;" style="rounded=1;whiteSpace=wrap;html=1;" vertex="1" parent="1">
          <mxGeometry x="40" y="590" width="600" height="30" as="geometry" />
        </mxCell>
        <mxCell id="fuvidWVMP9lCW8_2vNXT-11" value="&lt;b&gt;Commissions/ Incentive Paid out&lt;/b&gt;" style="rounded=1;whiteSpace=wrap;html=1;" vertex="1" parent="1">
          <mxGeometry x="40" y="535" width="600" height="30" as="geometry" />
        </mxCell>
        <mxCell id="fuvidWVMP9lCW8_2vNXT-12" value="" style="shape=actor;whiteSpace=wrap;html=1;fillColor=#f8cecc;strokeColor=#b85450;" vertex="1" parent="1">
          <mxGeometry x="110.5" y="128" width="20" height="30" as="geometry" />
        </mxCell>
        <mxCell id="fuvidWVMP9lCW8_2vNXT-13" value="Transaction Data update after computation &lt;b&gt;Net Commission/Incentive posted Amount (Including Tax, TDS)&lt;/b&gt;" style="rounded=1;whiteSpace=wrap;html=1;align=left;verticalAlign=top;" vertex="1" parent="1">
          <mxGeometry x="40" y="480" width="600" height="30" as="geometry" />
        </mxCell>
        <mxCell id="fuvidWVMP9lCW8_2vNXT-14" value="Commission/Incentive&lt;div&gt;&lt;span style=&quot;background-color: initial;&quot;&gt;Slab&lt;/span&gt;&lt;br&gt;&lt;/div&gt;" style="rounded=1;whiteSpace=wrap;html=1;align=center;fontStyle=1" vertex="1" parent="1">
          <mxGeometry x="458.5" y="290" width="188" height="90" as="geometry" />
        </mxCell>
        <mxCell id="fuvidWVMP9lCW8_2vNXT-15" value="" style="endArrow=classic;html=1;rounded=0;" edge="1" parent="1" source="fuvidWVMP9lCW8_2vNXT-16">
          <mxGeometry width="50" height="50" relative="1" as="geometry">
            <mxPoint x="440" y="480" as="sourcePoint" />
            <mxPoint x="490" y="430" as="targetPoint" />
          </mxGeometry>
        </mxCell>
        <mxCell id="fuvidWVMP9lCW8_2vNXT-16" value="Transaction Data update during computation &lt;b&gt;Gross Commission/Incentive Amount (Excluding Tax, TDS)&lt;/b&gt;" style="rounded=1;whiteSpace=wrap;html=1;align=left;" vertex="1" parent="1">
          <mxGeometry x="40" y="410" width="600" height="30" as="geometry" />
        </mxCell>
        <mxCell id="fuvidWVMP9lCW8_2vNXT-17" value="&lt;b&gt;Sales Manager&amp;nbsp;&lt;/b&gt;" style="rounded=1;whiteSpace=wrap;html=1;verticalAlign=top;" vertex="1" parent="1">
          <mxGeometry x="220" y="102.5" width="150" height="60" as="geometry" />
        </mxCell>
        <mxCell id="fuvidWVMP9lCW8_2vNXT-18" value="" style="shape=actor;whiteSpace=wrap;html=1;fillColor=#d5e8d4;strokeColor=#82b366;" vertex="1" parent="1">
          <mxGeometry x="280.5" y="128" width="20" height="30" as="geometry" />
        </mxCell>
        <mxCell id="fuvidWVMP9lCW8_2vNXT-19" value="&lt;b&gt;Tele callers&lt;/b&gt;" style="rounded=1;whiteSpace=wrap;html=1;verticalAlign=top;" vertex="1" parent="1">
          <mxGeometry x="390" y="102.5" width="150" height="60" as="geometry" />
        </mxCell>
        <mxCell id="fuvidWVMP9lCW8_2vNXT-20" value="Hierarchy Master" style="rounded=1;whiteSpace=wrap;html=1;fontStyle=1" vertex="1" parent="1">
          <mxGeometry x="130" y="200" width="310" height="60" as="geometry" />
        </mxCell>
        <mxCell id="fuvidWVMP9lCW8_2vNXT-21" value="" style="endArrow=classic;html=1;rounded=0;exitX=0.5;exitY=1;exitDx=0;exitDy=0;" edge="1" parent="1" source="fuvidWVMP9lCW8_2vNXT-17">
          <mxGeometry width="50" height="50" relative="1" as="geometry">
            <mxPoint x="440" y="480" as="sourcePoint" />
            <mxPoint x="295" y="200" as="targetPoint" />
          </mxGeometry>
        </mxCell>
        <mxCell id="fuvidWVMP9lCW8_2vNXT-22" value="" style="endArrow=classic;html=1;rounded=0;entryX=0.214;entryY=0.029;entryDx=0;entryDy=0;entryPerimeter=0;" edge="1" parent="1" target="fuvidWVMP9lCW8_2vNXT-20">
          <mxGeometry width="50" height="50" relative="1" as="geometry">
            <mxPoint x="130" y="162.5" as="sourcePoint" />
            <mxPoint x="180" y="112.5" as="targetPoint" />
          </mxGeometry>
        </mxCell>
        <mxCell id="fuvidWVMP9lCW8_2vNXT-23" value="" style="shape=actor;whiteSpace=wrap;html=1;fillColor=#fff2cc;strokeColor=#d6b656;" vertex="1" parent="1">
          <mxGeometry x="455" y="128" width="20" height="30" as="geometry" />
        </mxCell>
        <mxCell id="fuvidWVMP9lCW8_2vNXT-24" value="" style="endArrow=classic;html=1;rounded=0;entryX=0.823;entryY=0.052;entryDx=0;entryDy=0;entryPerimeter=0;exitX=0.25;exitY=1;exitDx=0;exitDy=0;" edge="1" parent="1" source="fuvidWVMP9lCW8_2vNXT-19">
          <mxGeometry width="50" height="50" relative="1" as="geometry">
            <mxPoint x="450" y="170" as="sourcePoint" />
            <mxPoint x="389.9999999999999" y="197.9599999999999" as="targetPoint" />
          </mxGeometry>
        </mxCell>
        <mxCell id="fuvidWVMP9lCW8_2vNXT-25" value="" style="endArrow=classic;html=1;rounded=0;entryX=0.027;entryY=0.633;entryDx=0;entryDy=0;entryPerimeter=0;" edge="1" parent="1" target="fuvidWVMP9lCW8_2vNXT-9">
          <mxGeometry width="50" height="50" relative="1" as="geometry">
            <mxPoint x="640" y="425" as="sourcePoint" />
            <mxPoint x="690" y="375" as="targetPoint" />
          </mxGeometry>
        </mxCell>
        <mxCell id="fuvidWVMP9lCW8_2vNXT-26" value="" style="endArrow=classic;html=1;rounded=0;entryX=0.402;entryY=0.176;entryDx=0;entryDy=0;entryPerimeter=0;" edge="1" parent="1" target="fuvidWVMP9lCW8_2vNXT-11">
          <mxGeometry width="50" height="50" relative="1" as="geometry">
            <mxPoint x="280.5" y="510" as="sourcePoint" />
            <mxPoint x="330.5" y="460" as="targetPoint" />
          </mxGeometry>
        </mxCell>
        <mxCell id="fuvidWVMP9lCW8_2vNXT-27" value="" style="endArrow=classic;html=1;rounded=0;entryX=0.4;entryY=0.333;entryDx=0;entryDy=0;entryPerimeter=0;" edge="1" parent="1" target="fuvidWVMP9lCW8_2vNXT-10">
          <mxGeometry width="50" height="50" relative="1" as="geometry">
            <mxPoint x="280.5" y="565" as="sourcePoint" />
            <mxPoint x="330.5" y="515" as="targetPoint" />
          </mxGeometry>
        </mxCell>
        <mxCell id="fuvidWVMP9lCW8_2vNXT-28" value="" style="shape=actor;whiteSpace=wrap;html=1;fillColor=#f8cecc;strokeColor=#b85450;" vertex="1" parent="1">
          <mxGeometry x="90" y="680" width="60" height="90" as="geometry" />
        </mxCell>
        <mxCell id="fuvidWVMP9lCW8_2vNXT-29" value="" style="shape=actor;whiteSpace=wrap;html=1;fillColor=#d5e8d4;strokeColor=#82b366;" vertex="1" parent="1">
          <mxGeometry x="300" y="670" width="60" height="90" as="geometry" />
        </mxCell>
        <mxCell id="fuvidWVMP9lCW8_2vNXT-30" value="" style="shape=actor;whiteSpace=wrap;html=1;fillColor=#fff2cc;strokeColor=#d6b656;" vertex="1" parent="1">
          <mxGeometry x="510" y="670" width="60" height="90" as="geometry" />
        </mxCell>
        <mxCell id="fuvidWVMP9lCW8_2vNXT-31" value="&lt;ul&gt;&lt;li&gt;Sales Manager&lt;/li&gt;&lt;li&gt;Senior Sales Manager&lt;/li&gt;&lt;li&gt;Agency Development Manager&lt;/li&gt;&lt;li&gt;Trainee Sales Manager&lt;/li&gt;&lt;/ul&gt;" style="text;strokeColor=none;fillColor=none;html=1;whiteSpace=wrap;verticalAlign=middle;overflow=hidden;" vertex="1" parent="1">
          <mxGeometry x="250" y="770" width="220" height="80" as="geometry" />
        </mxCell>
        <mxCell id="fuvidWVMP9lCW8_2vNXT-32" value="&lt;ul&gt;&lt;li&gt;Agent&lt;/li&gt;&lt;/ul&gt;" style="text;strokeColor=none;fillColor=none;html=1;whiteSpace=wrap;verticalAlign=middle;overflow=hidden;" vertex="1" parent="1">
          <mxGeometry x="70" y="752" width="100" height="80" as="geometry" />
        </mxCell>
        <mxCell id="fuvidWVMP9lCW8_2vNXT-33" value="&lt;ul&gt;&lt;li&gt;Tele Sales Office&lt;/li&gt;&lt;li&gt;Team Lead&lt;/li&gt;&lt;li&gt;Assistant Branch Manager&lt;/li&gt;&lt;li&gt;Division Head&lt;/li&gt;&lt;/ul&gt;" style="text;strokeColor=none;fillColor=none;html=1;whiteSpace=wrap;verticalAlign=middle;overflow=hidden;" vertex="1" parent="1">
          <mxGeometry x="470" y="770" width="220" height="80" as="geometry" />
        </mxCell>
        <mxCell id="fuvidWVMP9lCW8_2vNXT-34" value="" style="shape=image;verticalLabelPosition=bottom;labelBackgroundColor=default;verticalAlign=top;aspect=fixed;imageAspect=0;image=data:image/png,iVBORw0KGgoAAAANSUhEUgAAARgAAAEYCAMAAACwUBm+AAAAYFBMVEX5rxbiBwobaLMBAQFIhr77yF381ofylpftcHKrrKuZvN72t7hwodDHx8b97cG70un/vQt9hYOxnFolJSX619fnTE1jW0zkJCZyxZbW6Oc7rG6t3cLz8/IImUkAii7////OqBQAAAAJlUlEQVR4XuzUUQ4CMQhAQY8BtLve/5ZWzYYYPYGd90X4nBBu959pYxgwYMCAAQMGDBgwYAQGDBgwYMCAAQMGDBgwAgMGDBgwYMCAAQMGjMCAAQMGDBgwYMCAASMwYMCAAQMGDBgwYMAIDBgwYMCAAQMGDBgwAgMGDBgwYMCAAQMGDBiBAQMGDBgwYGbmGDnBfDbiOM7VUZFgmqWeJq/WEAPMu7hULptaNGBmNUvTxNwepvpeurWL3Bsmvln62WwMk30vZ4/9bP4c5sHNGfCqigNRmJIqLPSBGrhQnPr/f+ZKrvXgVm1n3GbNntwkLzepL/nuYU470hnaqq7HcayqIXiQQGFZHNig2PwvwdCKZBwn5TWN7UNQ37ksa0mhNbj/vWJDtm+M0VeZhnKAkSOZfpFMkFI1hYa5zNs9zcfFhvorEa3LrXSfAYwYyfREahpQYbxftmVnvrJgFhtYpDeeSCD9n4Ghtq1r/9xML6WUJzN7MPYR7cwqNnhoyohsfjBhda18KZmiUhP9AnAXGOZRScUmfGgYZHKD2VbXKVVqfDRMkMrxYmP7BkTS1XV7lrpOAGZok5Gom+5k2hXAC8Og2LjnxaZPJKLXH/+vVadTwdeeeGCGekpGMo1jXbVDNaqtZc7PDBMvNkanEQl0OhwOhUR7DpgqBsXvW+q6GobNKlhmuRnGEVDEiw0LiNbGNL1tVlKgwleXDGZUMZOsSNrhnzZsPZgahpmBIY4mnUjT9yBujhEuAjJFMhcgqTySQLXy5ddv7t4YJtzZxIhorZumD8OnAxY5mTiYWr0rJe9TzIOxLmqYsNi8I2JM39MLyF3xsVLAtCosJWPlkUTkFx49GJve/7zli360yFpFIq4DAHGl2SeAmTyYoJREherkuSyM1nD5KGcsJf3Pe2A5nXb73T75p4AoCqZC6FZpSMIio34csjpV5r4n0cizFO08l53m7n73sEwUzIhk4QpYFxgmVRZW8VRd0sLOcynWxbxTNsrTLgZmkHFBYEsN03i/OHT9Zs6TdNArmAYLeJ7pImBahZMgS+AKwzjGSp9C2q47G8bDtLtx+atcZbgeTwVTKRhGIFrXjshqPpjmGlEOu8N0MEdZW2aHXEoCU7GZIJY8F0cCMH3Q4koEo78bTK0Cw3DBoGVxcWzHlLnB1GIw0z2rLROMvoMhd5NNLhIHg25VDjCtEAzWszd32Mb46omz+ZntmD4PGJx2xGBwGvgcjGOAMXnB0HTTIAMz8AwD9dtuPwEu1zEmCxjsfJUQDJ2wuZODOaPLxXRMfjCV+P0GkWFwJKDgQ1iO0bnA1B+B2XbumFrdcosViw9hpFJmMO1n1XfxYBBr7K0vPsTyHVPSF4LB39r9TNyl5g6Ggo0vI5VKmwcMYok+MYwbFQnBmO1XdUzH6BVsLjCfxBLBMKplrm3uYPBVHdsxecB8Hkvz3TAAw87rM8swaDt4sJnAyGMJ3+O7RXCosD6WGA08pBLA6FxgcIyUG+ZH8dcTWpvIaoZj/mQD83kswTCS9RpcBL3wA3aImcAM4lg6wzBYz40lDcPwYqXzX0rZTGDkp6UFhsF6LhiH8yMPDKHVlRlMKzaMbH0DwyCrGY5BXucBg1iSb+5E6xuJYdDmJ2yEcoCRxxK5rWGEeV0uMAzXMWhc5AGDWBKW3koYa7TNpPN3gZHHEjr7MylhrOlgc8cCQ+VNmcDgfQderKB/Le2O6iCrWWDQ0ckEBrEkAmPFsWZKh++TBGCQ13nAIJZEoWSxng9G0P4rsoMJY0n2KIlPW/0FWS1wDDo6mcAglkTFd8F6NhgYRgKmyQoGsaQmWRv8TB4MyQ7nFysDg7zOBAaxJGr3urMslsh5fSkYeSz5sMV6UTenbERg0NGhXGAQKzLLjJNkvROBQSrhjQmbCQxiRdrAw3rBkWJhxwrA/KrJBAaxImr54hg5ip5EFAkuGJMbzCCMFevJTDctZ4lhylIGBnmdAYw8lkAGYNa7WcQ1zFX0pWAQS4IhF5cNmN/bjpSEdGOY0orAIK9zgUEsicbF+OI7Tf62o03ParyIx0+lPrtjEEsC2fmGRf0kX60mZPWq5gtrjDyWwnsaKxigoWTDlEYGpsyYSp+/oki4COagSLFxj2C0/HS9ku2zgcErivzBIJPCkwS9LzZncBGBOVzVmTLjWSmMJfnIB/UneY4DsvomFphDUZxOR7+U2XbYR8CIY4nacDCIX/vi1jm9fnGPedoh2zfHowaTDM1wfiwNQ7UiAREI9YnmBWheFRvc0Q5OO8w5GDqyVnotJ7xBPQhHPqjx/RwH+/xNTxMrE/GpDybDRS6IpqddPHqLBFKPVju/LTbWoXPXoIDyR6VoLGRf/Qs4FJHrsGpqn88YeotleqxNb4sNrm0tm9eqSm1vKy0sEqGyyuS5LAq1uGQ81nXNmgsyVkF5fVFsltn/1rd6DQDoxoBI4syHU7dniHG9OLRMaJLofIP4HAewAazLgisF6dqC08ci24V0aIjAYIx8eFdswMjR5jZtsksA5XgqDod8IwzCYIJEIx8ixQbe8cX4GZTI1Ic/RXFYlXXoBVQpFUMSd0m82IALyKQBwWCQXSHXLn1MCjwTkmFNwUguNpeHq2wGIEDkxewYxEv+wToQjUgizBhq2ySTxIsNKvBCTy91hRahV/7sxKbZkWTcW1uPKlJdhbLz4i6r3LNJb42OWOTfQrPv+OPesNmtIkiEsud5nl/NWKe+uQpAEkTdnqnu73buWMVhIAbCcDGVChVCYFgQ5P3f8rKcfS4ih8txzZp/Uhgy3iIfrGW7yEd/90aAAQYYYIABBhhghvn8uI2mLLfw6gDKvPbjo+/DfGmYTXu21y5SM9HAhOT7cmtYNs2kLQwTSmVK8tYs88JMskuYymNlrDyVauooGjLlU8uzLXfJ6GDy29Ik+dJTaUj5WkiqvVV9AuNSHnrb0jDZbSTbf1W/XSaIP7M1S8/zJdXCMCFF/+11H/qJNTB+iq8L41I2hf0PzFgPpt9I/VbyBsZqVM3jTbdSXAzVkjR+c/H1e158Xcqa+Xhc29txPR619LguSUpJij/d4MX7Gzx7rArjOhJXjwR5Ni2M3/KRoPxIta2Z18W6/TjafsyVvHY4w/sYYIABBhhggCHAAAMMMMAAAwwwwAADDAEGGGCAAQYYYIABBhhgCDDAAAMMMMAAAwwwwAADDAEGGGCAAQYYYIABBhhgCDDAAAMMMMAAAwwwwABDgAEGGGCAAQYYYIABBhgCDDDAAAMMMMAAAwwwwJAvJYnONcnoGmYAAAAASUVORK5CYII=;textOpacity=0;fillOpacity=30;direction=east;" vertex="1" parent="1">
          <mxGeometry x="60" y="-10" width="140" height="140" as="geometry" />
        </mxCell>
        <mxCell id="fuvidWVMP9lCW8_2vNXT-35" value="" style="endArrow=classic;html=1;rounded=0;entryX=0.83;entryY=0.083;entryDx=0;entryDy=0;entryPerimeter=0;" edge="1" parent="1" target="fuvidWVMP9lCW8_2vNXT-16">
          <mxGeometry width="50" height="50" relative="1" as="geometry">
            <mxPoint x="540" y="380" as="sourcePoint" />
            <mxPoint x="590" y="330" as="targetPoint" />
          </mxGeometry>
        </mxCell>
        <mxCell id="fuvidWVMP9lCW8_2vNXT-36" value="" style="endArrow=classic;html=1;rounded=0;" edge="1" parent="1">
          <mxGeometry width="50" height="50" relative="1" as="geometry">
            <mxPoint x="710" y="490" as="sourcePoint" />
            <mxPoint x="640" y="495" as="targetPoint" />
          </mxGeometry>
        </mxCell>
        <mxCell id="fuvidWVMP9lCW8_2vNXT-37" value="" style="endArrow=classic;html=1;rounded=0;entryX=1;entryY=0.5;entryDx=0;entryDy=0;" edge="1" parent="1" target="fuvidWVMP9lCW8_2vNXT-3">
          <mxGeometry width="50" height="50" relative="1" as="geometry">
            <mxPoint x="710" y="230" as="sourcePoint" />
            <mxPoint x="760" y="180" as="targetPoint" />
          </mxGeometry>
        </mxCell>
        <mxCell id="fuvidWVMP9lCW8_2vNXT-38" value="" style="endArrow=classic;html=1;rounded=0;exitX=0.043;exitY=0.958;exitDx=0;exitDy=0;exitPerimeter=0;" edge="1" parent="1" source="fuvidWVMP9lCW8_2vNXT-3" target="fuvidWVMP9lCW8_2vNXT-8">
          <mxGeometry width="50" height="50" relative="1" as="geometry">
            <mxPoint x="460" y="260" as="sourcePoint" />
            <mxPoint x="510" y="210" as="targetPoint" />
          </mxGeometry>
        </mxCell>
        <mxCell id="fuvidWVMP9lCW8_2vNXT-39" value="" style="endArrow=classic;html=1;rounded=0;entryX=0.107;entryY=-0.014;entryDx=0;entryDy=0;entryPerimeter=0;" edge="1" parent="1" target="fuvidWVMP9lCW8_2vNXT-8">
          <mxGeometry width="50" height="50" relative="1" as="geometry">
            <mxPoint x="100" y="255" as="sourcePoint" />
            <mxPoint x="150" y="205" as="targetPoint" />
          </mxGeometry>
        </mxCell>
        <mxCell id="fuvidWVMP9lCW8_2vNXT-40" value="" style="endArrow=classic;html=1;rounded=0;" edge="1" parent="1">
          <mxGeometry width="50" height="50" relative="1" as="geometry">
            <mxPoint x="300" y="260" as="sourcePoint" />
            <mxPoint x="300" y="294" as="targetPoint" />
          </mxGeometry>
        </mxCell>
        <mxCell id="fuvidWVMP9lCW8_2vNXT-41" value="Distribution Management System" style="text;html=1;align=center;verticalAlign=middle;whiteSpace=wrap;rounded=0;fontStyle=1;fontSize=20;" vertex="1" parent="1">
          <mxGeometry x="196" y="40" width="380" height="30" as="geometry" />
        </mxCell>
        <mxCell id="fuvidWVMP9lCW8_2vNXT-42" value="" style="rounded=1;whiteSpace=wrap;html=1;fillOpacity=0;" vertex="1" parent="1">
          <mxGeometry x="10" width="670" height="660" as="geometry" />
        </mxCell>
      </root>
    </mxGraphModel>
  </diagram>
</mxfile>
